<svg height="479pt" viewBox="0 -76 479.984 479" width="479pt" xmlns="http://www.w3.org/2000/svg"><path style="fill:#BC2B35;" d="m192.054688 39.414062c-.597657 4.378907 2.46875 8.410157 6.847656 9.007813l176 24c.359375.046875.71875.070313 1.082031.070313 4.210937 0 7.699219-3.261719 7.984375-7.460938.28125-4.203125-2.742188-7.902344-6.914062-8.464844l-176-24c-4.375-.59375-8.402344 2.472656-9 6.847656zm0 0"/><path style="fill:#BC2B35;" d="m166.847656 16.414062 112 16c4.375.625 8.429688-2.410156 9.054688-6.785156.628906-4.375-2.410156-8.429687-6.78125-9.054687l-112-16c-4.375-.6289065-8.429688 2.410156-9.058594 6.78125-.625 4.375 2.410156 8.429687 6.785156 9.058593zm0 0"/><path style="fill:#BC2B35;" d="m286.902344 288.566406-176 24c-4.171875.5625-7.195313 4.265625-6.910156 8.46875.285156 4.203125 3.78125 7.460938 7.992187 7.457032.363281 0 .726563-.023438 1.085937-.070313l176-24c4.378907-.597656 7.445313-4.628906 6.851563-9.007813-.597656-4.378906-4.632813-7.445312-9.011719-6.847656zm0 0"/><path style="fill:#BC2B35;" d="m318.847656 256.574219-112 16c-4.375.625-7.410156 4.679687-6.785156 9.054687.628906 4.375 4.683594 7.410156 9.058594 6.785156l112-16c4.371094-.628906 7.410156-4.683593 6.78125-9.058593-.625-4.371094-4.679688-7.410157-9.054688-6.78125zm0 0"/><path style="fill:#BC2B35;" d="m479.984375 160.492188c-.046875-38.242188-29.988281-69.777344-68.175781-71.808594-.160156 0-2.160156-.160156-3.007813-.175782h-.265625l-268.128906-36.246093c-.300781-.082031-.605469-.128907-.910156-.207031-3.097656-.785157-6.25-1.441407-9.449219-1.96875-1.597656-.273438-3.199219-.535157-4.800781-.738282-1.246094-.144531-2.511719-.269531-3.773438-.375-3.199218-.289062-6.335937-.480468-9.472656-.480468-61.855469 0-112 50.144531-112 112 0 61.855468 50.144531 112 112 112 3.136719 0 6.296875-.191407 9.472656-.480469 1.261719-.101563 2.527344-.230469 3.773438-.375 1.601562-.199219 3.203125-.464844 4.800781-.734375 3.199219-.535156 6.351563-1.191406 9.449219-1.96875.304687-.082032.609375-.128906.910156-.207032l268.128906-36.234374c.128906 0 3.746094-.207032 3.914063-.230469 37.921875-2.355469 67.484375-33.773438 67.535156-71.769531zm-464 0c.058594-52.996094 43.003906-95.941407 96-96 3.96875.007812 7.9375.273437 11.871094.800781.410156.046875.800781.128906 1.207031.183593 3.917969.546876 7.800781 1.332032 11.625 2.34375 42.03125 11.140626 71.296875 49.175782 71.296875 92.65625 0 43.480469-29.265625 81.515626-71.296875 92.65625-3.824219 1.015626-7.707031 1.796876-11.625 2.34375-.40625.054688-.796875.136719-1.207031.183594-3.933594.539063-7.898438.816406-11.871094.832032-52.996094-.054688-95.941406-43.003907-96-96zm208 0c.003906-33.394532-14.914063-65.042969-40.679687-86.289063l48.679687 6.578125v23.710938c0 4.417968 3.582031 8 8 8s8-3.582032 8-8v-21.542969l24 3.238281v18.304688c0 4.417968 3.582031 8 8 8s8-3.582032 8-8v-16.144532l24 3.25v12.894532c0 4.417968 3.582031 8 8 8s8-3.582032 8-8v-10.734376l42.023437 5.679688c-21.152343 13.082031-34.027343 36.183594-34.027343 61.054688 0 24.871093 12.875 47.972656 34.027343 61.058593l-42.023437 5.679688v-10.738281c0-4.417969-3.582031-8-8-8s-8 3.582031-8 8v12.898437l-24 3.246094v-16.144531c0-4.417969-3.582031-8-8-8s-8 3.582031-8 8v18.304687l-24 3.238281v-21.542968c0-4.417969-3.582031-8-8-8s-8 3.582031-8 8v23.710937l-48.679687 6.578125c25.765624-21.246094 40.683593-52.894531 40.679687-86.289062zm184 56c-30.929687 0-56-25.070313-56-56 0-30.925782 25.070313-56 56-56 30.925781 0 56 25.074218 56 56-.035156 30.914062-25.085937 55.964843-56 56zm0 0"/><path style="fill:#BC2B35;" d="m159.984375 160.492188c0-26.507813-21.492187-48-48-48-26.511719 0-48 21.492187-48 48 0 26.511718 21.488281 48 48 48 26.5-.027344 47.972656-21.5 48-48zm-80 0c0-17.671876 14.328125-32 32-32s32 14.328124 32 32c0 17.675781-14.328125 32-32 32s-32-14.324219-32-32zm0 0"/><path style="fill:#BC2B35;" d="m407.984375 128.492188c-17.671875 0-32 14.328124-32 32 0 17.675781 14.328125 32 32 32s32-14.324219 32-32c0-17.671876-14.328125-32-32-32zm0 48c-8.835937 0-16-7.164063-16-16 0-8.835938 7.164063-16 16-16s16 7.164062 16 16c0 8.835937-7.164063 16-16 16zm0 0"/><path style="fill:#BC2B35;" d="m47.984375 160.492188c0-2.613282.726563-64 64-64 62.96875 0 64 61.410156 64 64 0 4.417968 3.582031 8 8 8s8-3.582032 8-8c0-.800782-.914063-80-80-80-79.089844 0-80 79.199218-80 80 0 4.417968 3.582031 8 8 8s8-3.582032 8-8zm0 0"/><path style="fill:#BC2B35;" d="m53.640625 186.835938c-2.007813-2.078126-4.984375-2.914063-7.78125-2.179688-2.796875.730469-4.980469 2.914062-5.714844 5.710938-.730469 2.800781.105469 5.773437 2.183594 7.78125l8 8c3.140625 3.03125 8.128906 2.988281 11.214844-.097657 3.085937-3.085937 3.128906-8.074219.097656-11.214843zm0 0"/></svg>