<svg height="480pt" viewBox="0 0 480 480" width="480pt" xmlns="http://www.w3.org/2000/svg"><path style="fill:#BC2B35;" d="m472 0h-224c-2.757812 0-5.320312 1.421875-6.785156 3.761719l-40 64c-.792969 1.269531-1.214844 2.738281-1.214844 4.238281v40h-40c-4.417969 0-8 3.582031-8 8v7.671875c-14.257812-.046875-42.640625 2.222656-61.601562 19.390625-12.425782 11.554688-19.152344 27.984375-18.398438 44.9375v128c-11.429688.003906-21.992188 6.105469-27.707031 16.003906-5.714844 9.898438-5.710938 22.097656.003906 31.996094h-12.296875c-17.671875 0-32 14.328125-32 32s14.328125 32 32 32h28.296875c-5.714844 9.898438-5.71875 22.097656-.003906 31.996094 5.714843 9.898437 16.277343 16 27.707031 16.003906h80c11.472656-.003906 22.0625-6.148438 27.761719-16.105469s5.628906-22.203125-.175781-32.09375c16.871093-1.894531 29.328124-16.640625 28.375-33.59375-.953126-16.957031-14.980469-30.214843-31.960938-30.207031h-12.296875c5.714844-9.898438 5.71875-22.097656.003906-31.996094-5.714843-9.898437-16.277343-16-27.707031-16.003906h-16v-127.550781c.328125-2.402344 4.320312-6.617188 16-8v15.550781c0 4.417969 3.582031 8 8 8h40v8c0 4.417969 3.582031 8 8 8h264c4.417969 0 8-3.582031 8-8v-208c0-4.417969-3.582031-8-8-8zm-352 192v136c0 4.417969 3.582031 8 8 8h24c8.835938 0 16 7.164062 16 16s-7.164062 16-16 16c-4.417969 0-8 3.582031-8 8s3.582031 8 8 8h40c8.835938 0 16 7.164062 16 16s-7.164062 16-16 16h-24c-4.417969 0-8 3.582031-8 8s3.582031 8 8 8c8.835938 0 16 7.164062 16 16s-7.164062 16-16 16h-80c-8.835938 0-16-7.164062-16-16s7.164062-16 16-16c4.417969 0 8-3.582031 8-8s-3.582031-8-8-8h-56c-8.835938 0-16-7.164062-16-16s7.164062-16 16-16h40c4.417969 0 8-3.582031 8-8s-3.582031-8-8-8c-8.835938 0-16-7.164062-16-16s7.164062-16 16-16h8c4.417969 0 8-3.582031 8-8v-136c-.742188-12.40625 4.050781-24.5 13.089844-33.03125 14.789062-13.425781 38.628906-15.28125 50.671875-15.28125h.238281v24.65625c-31.609375 2.855469-32 22.746094-32 23.65625zm48 0v-64h32v64zm296 16h-248v-133.703125l36.441406-58.296875h211.558594zm0 0"/><path style="fill:#BC2B35;" d="m248.800781 75.574219c1.359375 2.726562 4.152344 4.441406 7.199219 4.425781h184c4.417969 0 8-3.582031 8-8v-32c0-4.417969-3.582031-8-8-8h-160c-2.519531 0-4.890625 1.1875-6.398438 3.199219l-24 32c-1.832031 2.414062-2.144531 5.660156-.800781 8.375zm35.199219-27.574219h148v16h-160zm0 0"/><path style="fill:#BC2B35;" d="m440 96h-192c-4.417969 0-8 3.582031-8 8v80c0 4.417969 3.582031 8 8 8h192c4.417969 0 8-3.582031 8-8v-80c0-4.417969-3.582031-8-8-8zm-8 80h-16v-32c0-4.417969-3.582031-8-8-8s-8 3.582031-8 8v32h-16v-32c0-4.417969-3.582031-8-8-8s-8 3.582031-8 8v32h-16v-32c0-4.417969-3.582031-8-8-8s-8 3.582031-8 8v32h-16v-32c0-4.417969-3.582031-8-8-8s-8 3.582031-8 8v32h-16v-32c0-4.417969-3.582031-8-8-8s-8 3.582031-8 8v32h-16v-64h176zm0 0"/><path style="fill:#BC2B35;"  d="m120 360c0-4.417969-3.582031-8-8-8h-8c-4.417969 0-8 3.582031-8 8s3.582031 8 8 8h8c4.417969 0 8-3.582031 8-8zm0 0"/><path style="fill:#BC2B35;" d="m112 400c0 4.417969 3.582031 8 8 8h8c4.417969 0 8-3.582031 8-8s-3.582031-8-8-8h-8c-4.417969 0-8 3.582031-8 8zm0 0"/><path style="fill:#BC2B35;" d="m128 432h-8c-4.417969 0-8 3.582031-8 8s3.582031 8 8 8h8c4.417969 0 8-3.582031 8-8s-3.582031-8-8-8zm0 0"/></svg>